<?xml version="1.0" standalone="no"?>
<!DOCTYPE svg PUBLIC "-//W3C//DTD SVG 20010904//EN"
 "http://www.w3.org/TR/2001/REC-SVG-20010904/DTD/svg10.dtd">
<svg version="1.0" xmlns="http://www.w3.org/2000/svg"
 width="537.000000pt" height="150.000000pt" viewBox="0 0 537.000000 150.000000"
 preserveAspectRatio="xMidYMid meet">

<g transform="translate(0.000000,150.000000) scale(0.100000,-0.100000)"
fill="#000000" stroke="none">
<path d="M2924 1486 c-3 -8 -4 -29 -2 -48 l3 -33 63 -3 c59 -3 62 -2 64 20 1
25 1 59 -1 71 0 4 -28 7 -61 7 -43 0 -62 -4 -66 -14z"/>
<path d="M2133 1345 c-218 -48 -324 -189 -250 -335 45 -91 119 -116 367 -125
152 -5 181 -9 220 -28 37 -18 47 -29 55 -61 11 -47 -13 -99 -63 -133 -133 -89
-492 -31 -527 85 -10 34 -19 40 -28 20 -3 -7 -21 -48 -41 -91 l-36 -78 33 6
c23 5 49 -2 97 -23 103 -47 206 -66 324 -59 173 9 292 62 343 152 49 88 38
191 -29 255 -58 57 -108 70 -303 81 -93 5 -190 11 -214 15 -118 16 -121 139
-5 194 58 27 161 38 258 28 86 -9 178 -52 186 -86 3 -13 9 -24 14 -25 11 -2
92 171 84 179 -4 3 -15 0 -27 -7 -17 -11 -31 -10 -88 8 -140 45 -254 53 -370
28z"/>
<path d="M293 1092 l-293 -257 64 -64 64 -64 451 59 450 59 -435 5 -436 5 254
196 c139 108 264 203 278 211 14 8 105 34 203 57 97 24 177 44 177 47 0 2
-109 4 -242 4 l-243 0 -292 -258z"/>
<path d="M2890 1341 c0 -5 7 -11 15 -15 13 -5 15 -57 15 -390 0 -332 -2 -385
-15 -390 -8 -3 -15 -10 -15 -16 0 -6 38 -10 100 -10 95 0 120 8 84 28 -13 7
-15 55 -15 388 0 329 2 380 16 390 8 6 15 14 15 18 0 3 -45 6 -100 6 -55 0
-100 -4 -100 -9z"/>
<path d="M3360 1340 c0 -5 6 -10 14 -10 8 0 17 -7 20 -16 3 -9 6 -182 6 -385
0 -358 -1 -369 -20 -381 -11 -7 -20 -16 -20 -20 0 -5 43 -8 95 -8 52 0 95 3
95 8 0 4 -9 13 -20 20 -19 12 -20 23 -20 337 0 179 3 325 8 324 8 0 550 -618
564 -643 6 -11 5 -18 -6 -22 -9 -3 -16 -10 -16 -15 0 -10 183 -12 193 -2 4 3
-2 12 -13 20 -19 14 -20 26 -20 395 0 371 0 380 20 385 47 12 13 23 -75 23
-52 0 -95 -3 -95 -6 0 -4 8 -13 18 -20 15 -11 17 -39 19 -299 2 -190 -1 -285
-7 -283 -18 6 -500 560 -500 574 0 8 7 14 15 14 8 0 15 5 15 10 0 6 -52 10
-135 10 -83 0 -135 -4 -135 -10z"/>
<path d="M4750 1341 c0 -5 7 -11 15 -15 8 -3 15 -10 15 -15 0 -24 -332 -748
-350 -763 -11 -9 -20 -19 -20 -22 0 -3 43 -6 95 -6 52 0 95 2 95 5 0 3 -5 14
-12 24 -10 16 -6 34 23 103 l34 83 226 3 226 2 37 -79 c40 -88 43 -109 21
-117 -37 -14 4 -24 101 -24 97 0 131 10 84 25 -13 4 -40 48 -79 128 -318 660
-317 657 -291 657 6 0 10 5 10 10 0 6 -45 10 -115 10 -63 0 -115 -4 -115 -9z
m204 -314 l85 -177 -169 0 -169 0 65 148 c36 81 72 162 80 181 8 19 16 32 19
30 2 -3 42 -85 89 -182z"/>
<path d="M1116 506 c-157 -179 -290 -327 -294 -330 -4 -3 -84 42 -176 100 -93
58 -170 103 -172 102 -1 -2 76 -79 172 -172 l174 -168 83 76 c45 41 228 219
407 395 l325 320 -117 1 -117 0 -285 -324z"/>
<path d="M4310 254 c0 -19 4 -20 56 -16 l55 5 -3 -117 -3 -116 25 0 25 0 -3
116 -3 117 55 -5 c52 -4 56 -3 56 16 0 20 -5 21 -130 21 -125 0 -130 -1 -130
-21z"/>
<path d="M2295 141 l0 -131 25 0 c24 0 25 2 22 54 l-4 54 80 3 c93 5 122 22
122 74 0 61 -16 70 -137 73 l-108 4 0 -131z m173 93 c32 -7 45 -31 30 -58 -7
-13 -25 -16 -83 -16 l-75 0 0 40 0 40 49 0 c27 0 62 -3 79 -6z"/>
<path d="M2645 140 l0 -130 25 0 25 0 0 130 0 130 -25 0 -25 0 0 -130z"/>
<path d="M2835 140 l0 -130 25 0 c24 0 25 2 22 55 l-4 55 49 0 c46 0 49 -2 76
-44 15 -24 27 -48 27 -55 0 -6 13 -11 30 -11 l30 0 -35 55 c-19 30 -35 56 -35
58 0 3 11 8 24 11 30 7 49 56 36 92 -13 34 -47 44 -153 44 l-92 0 0 -130z
m180 90 c21 -8 26 -16 23 -38 -3 -27 -4 -27 -80 -30 l-78 -3 0 34 c0 18 3 37
7 40 10 11 98 8 128 -3z"/>
<path d="M3215 141 l0 -130 118 -3 c111 -3 117 -2 117 17 0 19 -6 20 -96 17
l-95 -3 3 115 3 116 -25 0 -25 0 0 -129z"/>
<path d="M3642 264 c6 -5 -86 -220 -104 -241 -8 -10 -3 -13 22 -13 19 0 31 3
27 6 -3 3 -1 19 5 35 10 28 11 29 83 29 72 0 73 -1 83 -29 6 -16 8 -32 5 -35
-4 -3 8 -6 25 -6 l31 0 -56 118 c-31 64 -56 123 -56 130 0 7 -14 12 -35 12
-20 0 -33 -3 -30 -6z m76 -149 c-3 -4 -26 -5 -51 -3 l-45 3 25 55 25 55 26
-52 c14 -29 23 -55 20 -58z"/>
<path d="M3935 140 c0 -128 0 -130 22 -130 21 0 22 4 25 104 l3 105 83 -94
c45 -52 82 -99 82 -105 0 -5 12 -10 28 -10 l27 0 0 130 0 130 -25 0 -25 0 3
-97 3 -97 -48 54 c-26 30 -63 71 -80 91 -18 20 -30 39 -26 43 3 3 -11 6 -33 6
l-39 0 0 -130z"/>
<path d="M4720 259 c0 -5 -24 -64 -54 -130 -51 -113 -53 -119 -32 -119 16 0
25 9 35 35 l12 35 69 0 c66 0 70 -1 84 -29 9 -16 12 -31 9 -35 -4 -3 7 -6 24
-6 l31 0 -59 121 c-33 66 -59 125 -59 130 0 5 -13 9 -30 9 -16 0 -30 -5 -30
-11z m55 -86 c11 -26 22 -51 23 -55 2 -4 -20 -8 -48 -8 -28 0 -50 3 -48 8 2 4
11 28 22 55 10 26 21 47 25 47 3 0 15 -21 26 -47z"/>
</g>
</svg>
